<svg xmlns="http://www.w3.org/2000/svg" width="93.815" height="83.223" viewBox="0 0 93.815 83.223"><g id="ambulance" transform="translate(0 -0.5)"><g id="Group_172" data-name="Group 172" transform="translate(4.539 11.092)"><path id="Path_160" data-name="Path 160" d="M267.026,152.5h27.237a3.026,3.026,0,0,1,3.026,3.026v12.105H264V155.526A3.025,3.025,0,0,1,267.026,152.5Zm0,0" transform="translate(-218.606 -134.342)" fill="#ec1e24"></path><path id="Path_161" data-name="Path 161" d="M24,276.605h1.513a4.539,4.539,0,0,0,4.539-4.539v-3.026a4.539,4.539,0,0,0-4.539-4.539H24.143Zm0,0" transform="translate(-24 -225.158)" fill="#ec1e24"></path><path id="Path_162" data-name="Path 162" d="M170.158,62.553H155.026a3.026,3.026,0,1,1,0-6.053h15.131a3.026,3.026,0,0,1,0,6.053Zm0,0" transform="translate(-127.79 -56.5)" fill="#ec1e24"></path></g><path id="Path_163" data-name="Path 163" d="M200,.5h3.026V6.553H200Zm0,0" transform="translate(-162.172)" fill="#011689"></path><path id="Path_164" data-name="Path 164" d="M90.788,106.278V71.2A10.6,10.6,0,0,0,80.2,60.605h-34.8V57.579h1.513a4.539,4.539,0,0,0,0-9.079H31.776a4.539,4.539,0,1,0,0,9.079h1.513v3.108a16.652,16.652,0,0,0-13.236,8.305l-6.109,10.69a5.438,5.438,0,0,1-3.835,2.672,8.447,8.447,0,0,0-7.083,8.358v15.564A4.533,4.533,0,0,0,0,110.539v3.026A4.545,4.545,0,0,0,4.539,118.1H17.87v-3.026H4.539a1.515,1.515,0,0,1-1.513-1.513v-3.026a1.515,1.515,0,0,1,1.513-1.513H17.87V106H6.053V90.713a5.431,5.431,0,0,1,4.553-5.374,8.44,8.44,0,0,0,5.967-4.157L22.68,70.494a13.651,13.651,0,0,1,11.826-6.862H80.2A7.575,7.575,0,0,1,87.762,71.2V106H84.736V71.2A4.545,4.545,0,0,0,80.2,66.658H52.96A4.545,4.545,0,0,0,48.42,71.2V106H45.394V71.2a4.545,4.545,0,0,0-4.539-4.539H34.139a10.592,10.592,0,0,0-9.3,5.52L18.158,84.43V105.3h3.026V85.2l.211-.386H42.368v3.026H31.776v3.026a6.059,6.059,0,0,0,6.053,6.053h4.539V106H33.576v3.026H66.291V106H51.447V84.815H81.71v22.7H82v1.513h7.278a1.515,1.515,0,0,1,1.513,1.513v3.026a1.515,1.515,0,0,1-1.513,1.513H82V118.1h7.278a4.545,4.545,0,0,0,4.539-4.539v-3.026A4.533,4.533,0,0,0,90.788,106.278ZM48.42,53.039a1.515,1.515,0,0,1-1.513,1.513H40.855V51.526h6.053A1.515,1.515,0,0,1,48.42,53.039Zm-18.158,0a1.515,1.515,0,0,1,1.513-1.513h6.053v3.026H31.776A1.515,1.515,0,0,1,30.263,53.039Zm12.105,4.539v3.026H36.315V57.579ZM23.045,81.789,24.7,78.763h5.567v3.026Zm10.244,0V78.763a3.029,3.029,0,0,0-3.026-3.026H26.347l1.15-2.109a7.563,7.563,0,0,1,6.643-3.943h6.715A1.515,1.515,0,0,1,42.368,71.2V81.789Zm4.539,12.105A3.029,3.029,0,0,1,34.8,90.868h7.566v3.026ZM51.447,71.2a1.515,1.515,0,0,1,1.513-1.513H65.065V81.789H51.447ZM68.091,81.789V69.684H80.2A1.515,1.515,0,0,1,81.71,71.2V81.789Zm0,0" transform="translate(0 -38.921)" fill="#011689"></path><path id="Path_165" data-name="Path 165" d="M177.52,400.5h32.713v3.026H177.52Zm0,0" transform="translate(-143.943 -324.343)" fill="#011689"></path><path id="Path_166" data-name="Path 166" d="M297.079,256.5h-3.026v6.053H288v3.026h6.053v6.053h3.026v-6.053h6.053v-3.026h-6.053Zm0,0" transform="translate(-233.527 -207.58)" fill="#011689"></path><path id="Path_167" data-name="Path 167" d="M154.348,13.4l2.14-2.14,4.279,4.281-2.14,2.14Zm0,0" transform="translate(-125.154 -8.723)" fill="#011689"></path><path id="Path_168" data-name="Path 168" d="M227.719,15.53,232,11.25l2.14,2.14-4.279,4.28Zm0,0" transform="translate(-184.647 -8.717)" fill="#011689"></path><path id="Path_169" data-name="Path 169" d="M346.592,349.684a10.592,10.592,0,1,1,10.592-10.592A10.6,10.6,0,0,1,346.592,349.684Zm0-13.618a3.026,3.026,0,1,0,3.026,3.026A3.029,3.029,0,0,0,346.592,336.066Zm0,0" transform="translate(-272.448 -265.961)" fill="#ec1e24"></path><path id="Path_170" data-name="Path 170" d="M90.592,349.684a10.592,10.592,0,1,1,10.592-10.592A10.6,10.6,0,0,1,90.592,349.684Zm0-13.618a3.026,3.026,0,1,0,3.026,3.026A3.029,3.029,0,0,0,90.592,336.066Zm0,0" transform="translate(-64.869 -265.961)" fill="#ec1e24"></path><path id="Path_171" data-name="Path 171" d="M372.539,369.579a4.539,4.539,0,1,1,4.539-4.539A4.545,4.545,0,0,1,372.539,369.579Zm0-6.052a1.513,1.513,0,1,0,1.513,1.513A1.515,1.515,0,0,0,372.539,363.526Zm0,0" transform="translate(-298.396 -291.909)" fill="#011689"></path><path id="Path_172" data-name="Path 172" d="M116.539,369.579a4.539,4.539,0,1,1,4.539-4.539A4.545,4.545,0,0,1,116.539,369.579Zm0-6.052a1.513,1.513,0,1,0,1.513,1.513A1.515,1.515,0,0,0,116.539,363.526Zm0,0" transform="translate(-90.816 -291.909)" fill="#011689"></path></g></svg>