<?xml version="1.0" encoding="UTF-8" standalone="no"?>
<svg
   xmlns:dc="http://purl.org/dc/elements/1.1/"
   xmlns:cc="http://creativecommons.org/ns#"
   xmlns:rdf="http://www.w3.org/1999/02/22-rdf-syntax-ns#"
   xmlns:svg="http://www.w3.org/2000/svg"
   xmlns="http://www.w3.org/2000/svg"
   xmlns:sodipodi="http://sodipodi.sourceforge.net/DTD/sodipodi-0.dtd"
   xmlns:inkscape="http://www.inkscape.org/namespaces/inkscape"
   width="75.087"
   height="73.835"
   viewBox="0 0 75.087 73.835"
   version="1.1"
   id="svg36"
   sodipodi:docname="air.svg"
   inkscape:version="0.92.2 (5c3e80d, 2017-08-06)">
  <metadata
     id="metadata42">
    <rdf:RDF>
      <cc:Work
         rdf:about="">
        <dc:format>image/svg+xml</dc:format>
        <dc:type
           rdf:resource="http://purl.org/dc/dcmitype/StillImage" />
      </cc:Work>
    </rdf:RDF>
  </metadata>
  <defs
     id="defs40" />
  <sodipodi:namedview
     pagecolor="#ffffff"
     bordercolor="#666666"
     borderopacity="1"
     objecttolerance="10"
     gridtolerance="10"
     guidetolerance="10"
     inkscape:pageopacity="0"
     inkscape:pageshadow="2"
     inkscape:window-width="1366"
     inkscape:window-height="705"
     id="namedview38"
     showgrid="false"
     showguides="true"
     inkscape:guide-bbox="true"
     inkscape:zoom="4.5202736"
     inkscape:cx="58.108804"
     inkscape:cy="36.121016"
     inkscape:window-x="-8"
     inkscape:window-y="-8"
     inkscape:window-maximized="1"
     inkscape:current-layer="svg36" />
  <g
     id="g4623"
     inkscape:export-xdpi="96"
     inkscape:export-ydpi="96">
    <g
       transform="matrix(0.62501781,0,0,0.62501781,-245.61585,-776.71867)"
       data-name="Group 175"
       id="Group_175">
      <g
         transform="translate(416,1275)"
         id="lego">
        <path
           style="fill:#011689"
           inkscape:connector-curvature="0"
           transform="translate(-184.323,-175.406)"
           d="m 227.782,209.066 c -1.011,1.979 -4.167,2.259 -5.891,2.259 -1.724,0 -4.88,-0.28 -5.891,-2.259 a 23.869,23.869 0 0 0 11.782,0 z m 0,0"
           data-name="Path 186"
           id="Path_186" />
        <path
           style="fill:#011689"
           inkscape:connector-curvature="0"
           transform="translate(-149.286,-88.022)"
           d="m 183.551,108.654 a 12.432,12.432 0 0 0 -3.7,-0.751 8.9,8.9 0 0 0 -4.905,1.046 c 0.171,-2.19 5.249,-2.623 7.73,-2.06 a 1.183,1.183 0 0 1 0.879,1.765 z m 0,0"
           data-name="Path 187"
           id="Path_187" />
        <path
           style="fill:#011689"
           inkscape:connector-curvature="0"
           transform="translate(-167.483,-106.502)"
           d="m 201.271,131 a 2.509,2.509 0 1 0 -2.5,2.683 2.6,2.6 0 0 0 2.5,-2.683 z m 0,0"
           data-name="Path 188"
           id="Path_188" />
        <path
           style="fill:#ffffff"
           inkscape:connector-curvature="0"
           transform="translate(-176.258,-108.09)"
           d="m 208.246,130.264 a 1.251,1.251 0 1 0 0.725,1.614 1.251,1.251 0 0 0 -0.725,-1.614 z m 0,0"
           data-name="Path 189"
           id="Path_189" />
        <path
           style="fill:#011689"
           inkscape:connector-curvature="0"
           transform="translate(-236.61,-88.022)"
           d="m 277.431,108.654 a 12.432,12.432 0 0 1 3.7,-0.751 8.9,8.9 0 0 1 4.905,1.046 c -0.171,-2.19 -5.249,-2.623 -7.73,-2.06 a 1.183,1.183 0 0 0 -0.879,1.765 z m 0,0"
           data-name="Path 190"
           id="Path_190" />
        <path
           style="fill:#011689"
           inkscape:connector-curvature="0"
           transform="translate(-240.304,-106.502)"
           d="m 286.607,131 a 2.509,2.509 0 1 0 -2.5,2.683 2.6,2.6 0 0 0 2.5,-2.683 z m 0,0"
           data-name="Path 191"
           id="Path_191" />
        <path
           style="fill:#ffffff"
           inkscape:connector-curvature="0"
           transform="translate(-246.089,-108.089)"
           d="m 290.8,130.987 a 1.251,1.251 0 1 0 -0.725,1.614 1.252,1.252 0 0 0 0.725,-1.614 z m 0,0"
           data-name="Path 192"
           id="Path_192" />
        <path
           style="fill:#ffffff"
           inkscape:connector-curvature="0"
           transform="translate(-182.046,-7.283)"
           d="M 217.087,13.541 V 9.786 a 1.251,1.251 0 0 1 1.251,-1.251 h -3.754 a 1.251,1.251 0 0 0 -1.252,1.251 v 3.755 z m 0,0"
           data-name="Path 193"
           id="Path_193" />
        <path
           style="fill:#ffffff"
           inkscape:connector-curvature="0"
           transform="translate(-109.228,-36.411)"
           d="m 136.76,77.708 v 6.257 h 3.754 v -6.257 a 8.76,8.76 0 0 1 -8.76,-8.76 v -17.52 a 8.76,8.76 0 0 1 8.76,-8.76 h -3.754 a 8.76,8.76 0 0 0 -8.76,8.76 v 17.52 a 8.76,8.76 0 0 0 8.76,8.76 z m 0,0"
           data-name="Path 194"
           id="Path_194" />
        <path
           style="fill:#ffffff"
           inkscape:connector-curvature="0"
           transform="translate(-7.283,-276.645)"
           d="m 12.289,349.366 a 19.712,19.712 0 0 1 0.576,-4.755 l 1.164,-8.472 A 11.131,11.131 0 0 1 25,327.954 h 1.231 l 0.305,-1.748 A 2.956,2.956 0 0 1 29.6,324.2 h -3.753 a 2.956,2.956 0 0 0 -3.061,2.006 l -0.305,1.748 h -1.232 a 11.131,11.131 0 0 0 -10.975,8.185 l -1.164,8.472 a 19.711,19.711 0 0 0 -0.575,4.755 v 1.114 h 3.754 z m 0,0"
           data-name="Path 195"
           id="Path_195" />
        <path
           style="fill:#011689"
           inkscape:connector-curvature="0"
           transform="translate(-58.252,-269.377)"
           d="M 122.076,344.464 H 69.515 A 1.252,1.252 0 0 1 68.282,343 l 4.24,-24.274 a 4.18,4.18 0 0 1 4.294,-3.042 h 37.968 a 4.173,4.173 0 0 1 4.287,3.012 l 4.239,24.3 a 1.252,1.252 0 0 1 -1.233,1.467 z M 71,341.961 h 49.584 l -3.977,-22.807 a 1.808,1.808 0 0 0 -1.827,-0.97 H 76.816 a 1.8,1.8 0 0 0 -1.834,1 z m 0,0"
           data-name="Path 196"
           id="Path_196" />
        <path
           style="fill:#011689"
           inkscape:connector-curvature="0"
           transform="translate(-152.919,-233.02)"
           d="m 200.474,281.827 h -20.023 a 1.252,1.252 0 0 1 -1.252,-1.252 v -6.257 a 1.252,1.252 0 0 1 1.252,-1.252 h 20.023 a 1.252,1.252 0 0 1 1.252,1.252 v 6.257 a 1.252,1.252 0 0 1 -1.252,1.252 z m -18.772,-2.5 h 17.521 v -3.755 H 181.7 Z m 0,0"
           data-name="Path 197"
           id="Path_197" />
        <path
           style="fill:#011689"
           inkscape:connector-curvature="0"
           transform="translate(-101.945,-29.127)"
           d="M 149.5,71.676 H 129.477 A 10.023,10.023 0 0 1 119.465,61.665 V 44.144 A 10.023,10.023 0 0 1 129.477,34.133 H 149.5 a 10.023,10.023 0 0 1 10.012,10.011 V 61.665 A 10.023,10.023 0 0 1 149.5,71.676 Z m -20.023,-35.04 a 7.516,7.516 0 0 0 -7.509,7.509 v 17.52 a 7.516,7.516 0 0 0 7.509,7.509 H 149.5 a 7.516,7.516 0 0 0 7.509,-7.509 V 44.144 A 7.516,7.516 0 0 0 149.5,36.635 Z m 0,0"
           data-name="Path 198"
           id="Path_198" />
        <path
           style="fill:#ffffff"
           inkscape:connector-curvature="0"
           transform="translate(-3.417,-291.274)"
           d="m 4,359.07 1.107,-8.06 a 11.446,11.446 0 0 1 4.948,-7.436 13.1,13.1 0 0 1 7.324,-2.242 v 2.5 a 10.6,10.6 0 0 0 -5.914,1.808 9.156,9.156 0 0 0 -3.393,4.083 7.6,7.6 0 0 0 -0.3,0.837 l -0.125,0.423 a 3.3,3.3 0 0 0 -0.057,0.365 l -1.107,8.059 z m 0,0"
           data-name="Path 200"
           id="Path_200" />
        <g
           transform="translate(0,50.054)"
           data-name="Group 173"
           id="Group_173">
          <path
             style="fill:#011689"
             inkscape:connector-curvature="0"
             transform="translate(-3.417,-409.397)"
             d="m 6.095,421.11 a 1.255,1.255 0 0 0 -1.41,1.07 L 4,427.138 l 2.48,0.34 0.681,-4.959 A 1.255,1.255 0 0 0 6.095,421.11 Z m 0,0"
             data-name="Path 201"
             id="Path_201" />
          <path
             style="fill:#011689"
             inkscape:connector-curvature="0"
             transform="translate(-29.556,-341.329)"
             d="m 43.522,343.835 v -2.5 a 13.1,13.1 0 0 0 -7.324,2.243 12.031,12.031 0 0 0 -1.106,0.842 1.206,1.206 0 0 0 -0.082,1.818 1.323,1.323 0 0 0 1.715,0.08 9.611,9.611 0 0 1 0.884,-0.672 10.6,10.6 0 0 1 5.913,-1.811 z m 0,0"
             data-name="Path 202"
             id="Path_202" />
          <path
             style="fill:#011689"
             inkscape:connector-curvature="0"
             transform="translate(-12.725,-380.751)"
             d="m 15.016,388.335 a 1.3,1.3 0 0 0 0.013,1.047 l 0.134,0.209 a 0.862,0.862 0 0 0 0.183,0.176 0.723,0.723 0 0 0 0.2,0.133 1.7,1.7 0 0 0 0.234,0.089 1.474,1.474 0 0 0 0.952,-0.088 1.344,1.344 0 0 0 0.359,-0.272 1.158,1.158 0 0 0 0.249,-1.227 1.514,1.514 0 0 0 -0.255,-0.412 1.377,1.377 0 0 0 -0.374,-0.317 1.174,1.174 0 0 0 -0.954,-0.08 1.31,1.31 0 0 0 -0.741,0.742 z m 0,0"
             data-name="Path 203"
             id="Path_203" />
          <path
             style="fill:#011689"
             inkscape:connector-curvature="0"
             transform="translate(0,-438.335)"
             d="M 15.017,463.367 H 1.252 A 1.252,1.252 0 0 1 0,462.115 V 461 a 21.06,21.06 0 0 1 0.612,-5.056 1.2514891,1.2514891 0 0 1 2.43,0.6 18.564,18.564 0 0 0 -0.539,4.318 h 12.514 a 1.251,1.251 0 1 1 0,2.5 z m 0,0"
             data-name="Path 204"
             id="Path_204" />
          <path
             style="fill:#011689"
             inkscape:connector-curvature="0"
             transform="translate(-73.984,-341.329)"
             d="M 89.127,343.835 H 87.95 a 1.251,1.251 0 0 1 0,-2.5 h 1.177 a 1.251,1.251 0 0 1 0,2.5 z m 0,0"
             data-name="Path 205"
             id="Path_205" />
          <path
             style="fill:#011689"
             inkscape:connector-curvature="0"
             transform="translate(-341.592,-341.31)"
             d="m 415.427,366.342 h -13.766 a 1.251,1.251 0 1 1 0,-2.5 h 12.514 a 18.562,18.562 0 0 0 -0.539,-4.318 0.988,0.988 0 0 1 -0.025,-0.13 l -1.154,-8.4 a 9.84,9.84 0 0 0 -9.745,-7.171 h -1.164 a 1.251,1.251 0 1 1 0,-2.5 h 1.164 a 12.326,12.326 0 0 1 12.191,9.138 0.987,0.987 0 0 1 0.025,0.128 l 1.154,8.408 a 21.009,21.009 0 0 1 0.6,4.99 v 1.114 a 1.252,1.252 0 0 1 -1.252,1.252 z m 0,0"
             data-name="Path 206"
             id="Path_206" />
        </g>
        <g
           style="fill:none;stroke:#011689;stroke-width:2;stroke-linecap:round"
           transform="translate(19,10)"
           data-name="Rectangle 827"
           id="Rectangle_827">
          <rect
             style="stroke:none"
             y="0"
             x="0"
             id="rect23"
             height="7"
             width="37" />
          <rect
             style="fill:none"
             id="rect25"
             height="5"
             width="35"
             y="1"
             x="1" />
        </g>
        <path
           style="fill:#011689"
           inkscape:connector-curvature="0"
           transform="translate(-150.431,-189.568)"
           d="M 187.734,256 H 189 v 8.655 h -1.265 z m 0,0"
           data-name="Path 207"
           id="Path_207" />
      </g>
      <g
         transform="translate(440.391,1323.076)"
         data-name="Group 174"
         id="Group_174">
        <path
           style="fill:#ec1e24"
           inkscape:connector-curvature="0"
           transform="translate(-234.678,-344)"
           d="M 261.322,350.055 258.9,344 h -4.844 l -6.056,18.166 12.111,-4.844 -4.844,-3.633 z"
           data-name="Path 142"
           id="Path_142" />
        <path
           style="fill:#ec1e24"
           inkscape:connector-curvature="0"
           transform="translate(-160,-344)"
           d="M 173.322,362.166 167.266,344 h -4.844 l -2.422,6.055 6.055,3.633 -4.844,3.633 z"
           data-name="Path 143"
           id="Path_143" />
      </g>
      <path
         style="fill:#ec1e24"
         inkscape:connector-curvature="0"
         transform="translate(255.235,1233.266)"
         d="m 198.637,61.273 a 6.637,6.637 0 1 1 6.637,-6.637 6.645,6.645 0 0 1 -6.637,6.637 z"
         data-name="Path 208"
         id="Path_208" />
      <path
         style="fill:#011689"
         inkscape:connector-curvature="0"
         transform="translate(227.028,1205.059)"
         d="m 226.844,85.688 a 2.844,2.844 0 1 1 2.844,-2.844 2.848,2.848 0 0 1 -2.844,2.844 z m 0,-3.792 a 0.948,0.948 0 1 0 0.948,0.948 0.948,0.948 0 0 0 -0.948,-0.944 z"
         data-name="Path 209"
         id="Path_209" />
    </g>
    <path
       inkscape:connector-curvature="0"
       id="path4575"
       d="M 2.2989143,26.699793 37.817364,3.0208279 73.335813,26.699793"
       style="fill:none;stroke:#011689;stroke-width:2.84147596;stroke-linecap:butt;stroke-linejoin:miter;stroke-miterlimit:4;stroke-dasharray:none;stroke-opacity:1" />
    <path
       inkscape:connector-curvature="0"
       id="path4585"
       d="M 6.743837,23.620162 V 72.069826 H 68.824599 V 23.620162"
       style="fill:none;stroke:#011689;stroke-width:2.84147596;stroke-linecap:butt;stroke-linejoin:miter;stroke-miterlimit:4;stroke-dasharray:none;stroke-opacity:1" />
  </g>
</svg>
